<svg width="30" height="30" viewBox="0 0 30 30" fill="none" xmlns="http://www.w3.org/2000/svg">
<path d="M23.6774 6.94498C22.0379 6.17785 20.3035 5.63264 18.5199 5.32373C18.2974 5.72498 18.0387 6.26623 17.8587 6.69498C15.9642 6.40623 14.0369 6.40623 12.1424 6.69498C11.9438 6.22646 11.7205 5.76874 11.4737 5.32373C9.68858 5.63315 7.95281 6.17965 6.31243 6.94873C3.04868 11.8812 2.16368 16.6912 2.60618 21.4325C4.51138 22.871 6.65194 23.9677 8.93243 24.6737C9.44483 23.9686 9.89804 23.2223 10.2874 22.4425C9.54678 22.1602 8.83272 21.8126 8.15368 21.4037C8.33243 21.2712 8.50743 21.1325 8.67618 20.99C12.7899 22.9137 17.2587 22.9137 21.3237 20.99C21.4949 21.1325 21.6699 21.2712 21.8462 21.4037C21.1699 21.8112 20.4537 22.1612 19.7087 22.4437C20.0974 23.2239 20.5507 23.9703 21.0637 24.675C23.346 23.9694 25.488 22.8718 27.3937 21.4312C27.9124 15.9362 26.5074 11.17 23.6774 6.94498ZM10.8474 18.5162C9.61243 18.5162 8.59993 17.3637 8.59993 15.96C8.59993 14.5562 9.59118 13.4012 10.8474 13.4012C12.1037 13.4012 13.1162 14.5537 13.0949 15.96C13.0962 17.3637 12.1037 18.5162 10.8474 18.5162ZM19.1524 18.5162C17.9174 18.5162 16.9049 17.3637 16.9049 15.96C16.9049 14.5562 17.8962 13.4012 19.1524 13.4012C20.4087 13.4012 21.4212 14.5537 21.3999 15.96C21.3999 17.3637 20.4087 18.5162 19.1524 18.5162Z" fill="white"/>
</svg>
