<svg width="30" height="30" viewBox="0 0 30 30" fill="none" xmlns="http://www.w3.org/2000/svg">
<path fill-rule="evenodd" clip-rule="evenodd" d="M3.5 5C2.33064 5 1.3085 5.58654 0.680406 6.4599C0.250925 7.05709 0 7.79374 0 8.58334V21.4166C0 23.3525 1.52455 25 3.5 25H12.75C13.4404 25 14 24.4404 14 23.75C14 23.0596 13.4404 22.5 12.75 22.5H3.5C2.99018 22.5 2.5 22.0582 2.5 21.4166V9.93457L9.72435 17.887C11.2123 19.5249 13.7876 19.5249 15.2756 17.887L22.5 9.93457V15.1666C22.5 15.857 23.0596 16.4166 23.75 16.4166C24.4404 16.4166 25 15.857 25 15.1666V8.58334C25 7.79375 24.7491 7.05709 24.3196 6.4599C23.6915 5.58654 22.6694 5 21.5 5H3.5ZM11.5748 16.2059L3.66587 7.5H21.3341L13.4253 16.2059C12.9292 16.7519 12.0708 16.7519 11.5748 16.2059ZM22.8661 26.6161C22.378 27.1042 22.378 27.8957 22.8661 28.3839C23.3542 28.872 24.1458 28.872 24.6339 28.3839L28.3839 24.6339C28.872 24.1457 28.872 23.3542 28.3839 22.8661L24.6339 19.1161C24.1458 18.628 23.3542 18.628 22.8661 19.1161C22.378 19.6042 22.378 20.3957 22.8661 20.8839L24.4823 22.5H18.75C18.0596 22.5 17.5 23.0596 17.5 23.75C17.5 24.4404 18.0596 25 18.75 25H24.4823L22.8661 26.6161Z" fill="white"/>
</svg>
