<svg width="281" height="16" viewBox="0 0 281 16" fill="none" xmlns="http://www.w3.org/2000/svg">
<path d="M11.4 8.34C12.04 7.44 12.34 6.44 12.34 5.32C12.34 3.86 11.82 2.62 10.78 1.56C9.74 0.519999 8.48 -2.38419e-07 7.02 -2.38419e-07H0L1.38 2.38L1.68 2.68H7.02C7.74 2.68 8.36 2.94 8.88 3.46C9.42 3.98 9.68 4.6 9.68 5.32C9.68 6.06 9.42 6.7 8.88 7.22C8.36 7.74 7.74 8 7.02 8L4.64 7.98L9.28 16H12.34L9.06 10.26C10 9.88 10.78 9.24 11.4 8.34ZM28.2148 -2.38419e-07C25.9948 -2.38419e-07 24.1148 0.799999 22.5748 2.36C21.0148 3.92 20.2148 5.8 20.2148 8C20.2148 10.22 21.0148 12.08 22.5748 13.64C24.1348 15.2 25.9948 16 28.2148 16C30.4348 16 32.2948 15.2 33.8548 13.64C35.4348 12.1 36.2348 10.22 36.2348 8C36.2348 5.8 35.4348 3.92 33.8548 2.36C32.2948 0.799999 30.4348 -2.38419e-07 28.2148 -2.38419e-07ZM28.2148 2.68C29.6748 2.68 30.9348 3.2 31.9748 4.24C33.0148 5.28 33.5348 6.54 33.5348 8C33.5348 9.46 33.0348 10.72 31.9748 11.78C30.9348 12.82 29.6748 13.32 28.2148 13.32C26.7548 13.32 25.4748 12.82 24.4348 11.78C23.3948 10.74 22.8948 9.46 22.8948 8C22.8948 6.54 23.3948 5.28 24.4348 4.24C25.4948 3.18 26.7548 2.68 28.2148 2.68ZM52.5117 -2.38419e-07C50.2917 -2.38419e-07 48.4117 0.799999 46.8717 2.36C45.3117 3.92 44.5117 5.8 44.5117 8C44.5117 10.22 45.3117 12.08 46.8717 13.64C48.4317 15.2 50.2917 16 52.5117 16C54.7317 16 56.5917 15.2 58.1517 13.64C59.7317 12.1 60.5317 10.22 60.5317 8C60.5317 5.8 59.7317 3.92 58.1517 2.36C56.5917 0.799999 54.7317 -2.38419e-07 52.5117 -2.38419e-07ZM52.5117 2.68C53.9717 2.68 55.2317 3.2 56.2717 4.24C57.3117 5.28 57.8317 6.54 57.8317 8C57.8317 9.46 57.3317 10.72 56.2717 11.78C55.2317 12.82 53.9717 13.32 52.5117 13.32C51.0517 13.32 49.7717 12.82 48.7317 11.78C47.6917 10.74 47.1917 9.46 47.1917 8C47.1917 6.54 47.6917 5.28 48.7317 4.24C49.7917 3.18 51.0517 2.68 52.5117 2.68ZM68.8086 7.98V16H71.4686V10.68H79.4686V7.98H71.4686H68.8086ZM68.8086 -2.38419e-07L71.4686 2.68H79.4686V-2.38419e-07H68.8086ZM86.543 -2.38419e-07V2.68V16H89.223V2.68H94.543V-2.38419e-07H86.543ZM109.738 -2.38419e-07C107.518 -2.38419e-07 105.638 0.799999 104.098 2.36C102.538 3.92 101.738 5.8 101.738 8C101.738 10.22 102.538 12.08 104.098 13.64C105.658 15.2 107.518 16 109.738 16C111.958 16 113.818 15.2 115.378 13.64C116.958 12.1 117.758 10.22 117.758 8C117.758 5.8 116.958 3.92 115.378 2.36C113.818 0.799999 111.958 -2.38419e-07 109.738 -2.38419e-07ZM109.738 2.68C111.198 2.68 112.458 3.2 113.498 4.24C114.538 5.28 115.058 6.54 115.058 8C115.058 9.46 114.558 10.72 113.498 11.78C112.458 12.82 111.198 13.32 109.738 13.32C108.278 13.32 106.998 12.82 105.958 11.78C104.918 10.74 104.418 9.46 104.418 8C104.418 6.54 104.918 5.28 105.958 4.24C107.018 3.18 108.278 2.68 109.738 2.68ZM137.795 1.56C136.755 0.519999 135.495 -2.38419e-07 134.035 -2.38419e-07H126.035L128.695 2.68H134.035C134.755 2.68 135.375 2.94 135.895 3.46C136.435 3.98 136.695 4.62 136.695 5.34C136.695 6.08 136.415 6.7 135.895 7.22C135.375 7.74 134.755 8 134.035 8H128.695H126.035V16H128.695V10.68H134.035C135.495 10.68 136.755 10.16 137.795 9.12C138.855 8.08 139.355 6.8 139.355 5.34C139.355 3.88 138.835 2.62 137.795 1.56ZM159.641 -2.38419e-07C157.421 -2.38419e-07 155.541 0.799999 154.001 2.36C152.441 3.92 151.641 5.8 151.641 8C151.641 10.22 152.441 12.08 154.001 13.64C155.561 15.2 157.421 16 159.641 16C161.861 16 163.721 15.2 165.281 13.64C166.861 12.1 167.661 10.22 167.661 8C167.661 5.8 166.861 3.92 165.281 2.36C163.721 0.799999 161.861 -2.38419e-07 159.641 -2.38419e-07ZM159.641 2.68C161.101 2.68 162.361 3.2 163.401 4.24C164.441 5.28 164.961 6.54 164.961 8C164.961 9.46 164.461 10.72 163.401 11.78C162.361 12.82 161.101 13.32 159.641 13.32C158.181 13.32 156.901 12.82 155.861 11.78C154.821 10.74 154.321 9.46 154.321 8C154.321 6.54 154.821 5.28 155.861 4.24C156.921 3.18 158.181 2.68 159.641 2.68ZM175.938 7.98V16H178.598V10.68H186.598V7.98H178.598H175.938ZM175.938 -2.38419e-07L178.598 2.68H186.598V-2.38419e-07H175.938ZM193.672 7.98V16H196.332V10.68H204.332V7.98H196.332H193.672ZM193.672 -2.38419e-07L196.332 2.68H204.332V-2.38419e-07H193.672ZM214.066 2.64L211.406 -2.38419e-07V16L214.066 13.32V2.64ZM224.119 15.36C225.079 15.78 226.119 16 227.219 16C228.319 16 229.359 15.8 230.319 15.38L227.219 13.32C226.479 13.32 225.799 13.18 225.139 12.92C224.499 12.64 223.939 12.26 223.459 11.76C222.959 11.28 222.579 10.72 222.299 10.08C222.019 9.42 221.879 8.74 221.879 8C221.879 7.26 222.019 6.58 222.299 5.92C222.579 5.28 222.959 4.72 223.439 4.24C223.919 3.74 224.479 3.36 225.139 3.08C225.779 2.82 226.479 2.68 227.219 2.68C228.659 2.68 229.919 3.18 230.979 4.22L232.879 2.36C232.139 1.62 231.279 1.04 230.319 0.619999C229.359 0.2 228.319 -2.38419e-07 227.219 -2.38419e-07C226.119 -2.38419e-07 225.079 0.219999 224.119 0.64C223.139 1.06 222.299 1.62 221.559 2.36C220.839 3.08 220.259 3.92 219.839 4.88C219.419 5.86 219.199 6.9 219.199 8C219.199 9.08 219.419 10.1 219.839 11.08C220.259 12.06 220.839 12.9 221.559 13.64C222.299 14.36 223.139 14.94 224.119 15.36ZM241.254 2.64L238.594 -2.38419e-07V16L241.254 13.32V2.64ZM253.027 10.68L255.387 5.98L257.727 10.68H260.727L255.387 -2.38419e-07L247.387 16H250.347L251.707 13.32L253.027 10.68ZM262.047 13.34H259.087L260.407 16H263.387L262.047 13.34ZM272.035 13.32L269.375 16H280.035V13.32H272.035ZM269.375 -2.38419e-07V0.439999V12.38L272.035 9.7V0.439999V-2.38419e-07H269.375Z" fill="white"/>
</svg>
