<svg width="681" height="81" viewBox="0 0 681 81" fill="none" xmlns="http://www.w3.org/2000/svg">
<g filter="url(#filter0_d_1_2)">
<path d="M247.71 72V61.5H248.625L253.425 69.69H252.945L257.7 61.5H258.615V72H257.55V63.165H257.805L253.425 70.665H252.9L248.49 63.165H248.775V72H247.71ZM266.746 72V70.26L266.701 69.975V67.065C266.701 66.395 266.511 65.88 266.131 65.52C265.761 65.16 265.206 64.98 264.466 64.98C263.956 64.98 263.471 65.065 263.011 65.235C262.551 65.405 262.161 65.63 261.841 65.91L261.361 65.115C261.761 64.775 262.241 64.515 262.801 64.335C263.361 64.145 263.951 64.05 264.571 64.05C265.591 64.05 266.376 64.305 266.926 64.815C267.486 65.315 267.766 66.08 267.766 67.11V72H266.746ZM264.031 72.075C263.441 72.075 262.926 71.98 262.486 71.79C262.056 71.59 261.726 71.32 261.496 70.98C261.266 70.63 261.151 70.23 261.151 69.78C261.151 69.37 261.246 69 261.436 68.67C261.636 68.33 261.956 68.06 262.396 67.86C262.846 67.65 263.446 67.545 264.196 67.545H266.911V68.34H264.226C263.466 68.34 262.936 68.475 262.636 68.745C262.346 69.015 262.201 69.35 262.201 69.75C262.201 70.2 262.376 70.56 262.726 70.83C263.076 71.1 263.566 71.235 264.196 71.235C264.796 71.235 265.311 71.1 265.741 70.83C266.181 70.55 266.501 70.15 266.701 69.63L266.941 70.365C266.741 70.885 266.391 71.3 265.891 71.61C265.401 71.92 264.781 72.075 264.031 72.075ZM271.499 69.96L271.529 68.595L276.434 64.125H277.739L274.274 67.44L273.674 67.95L271.499 69.96ZM270.659 72V60.87H271.724V72H270.659ZM276.764 72L273.479 67.905L274.169 67.08L278.069 72H276.764ZM282.705 72.075C281.885 72.075 281.165 71.905 280.545 71.565C279.925 71.215 279.44 70.74 279.09 70.14C278.74 69.53 278.565 68.835 278.565 68.055C278.565 67.275 278.73 66.585 279.06 65.985C279.4 65.385 279.86 64.915 280.44 64.575C281.03 64.225 281.69 64.05 282.42 64.05C283.16 64.05 283.815 64.22 284.385 64.56C284.965 64.89 285.42 65.36 285.75 65.97C286.08 66.57 286.245 67.265 286.245 68.055C286.245 68.105 286.24 68.16 286.23 68.22C286.23 68.27 286.23 68.325 286.23 68.385H279.375V67.59H285.66L285.24 67.905C285.24 67.335 285.115 66.83 284.865 66.39C284.625 65.94 284.295 65.59 283.875 65.34C283.455 65.09 282.97 64.965 282.42 64.965C281.88 64.965 281.395 65.09 280.965 65.34C280.535 65.59 280.2 65.94 279.96 66.39C279.72 66.84 279.6 67.355 279.6 67.935V68.1C279.6 68.7 279.73 69.23 279.99 69.69C280.26 70.14 280.63 70.495 281.1 70.755C281.58 71.005 282.125 71.13 282.735 71.13C283.215 71.13 283.66 71.045 284.07 70.875C284.49 70.705 284.85 70.445 285.15 70.095L285.75 70.785C285.4 71.205 284.96 71.525 284.43 71.745C283.91 71.965 283.335 72.075 282.705 72.075ZM292.564 72V61.5H293.479L298.279 69.69H297.799L302.554 61.5H303.469V72H302.404V63.165H302.659L298.279 70.665H297.754L293.344 63.165H293.629V72H292.564ZM309.92 72.075C309.25 72.075 308.665 71.95 308.165 71.7C307.665 71.45 307.275 71.075 306.995 70.575C306.725 70.075 306.59 69.45 306.59 68.7V64.125H307.655V68.58C307.655 69.42 307.86 70.055 308.27 70.485C308.69 70.905 309.275 71.115 310.025 71.115C310.575 71.115 311.05 71.005 311.45 70.785C311.86 70.555 312.17 70.225 312.38 69.795C312.6 69.365 312.71 68.85 312.71 68.25V64.125H313.775V72H312.755V69.84L312.92 70.23C312.67 70.81 312.28 71.265 311.75 71.595C311.23 71.915 310.62 72.075 309.92 72.075ZM318.858 72.075C318.208 72.075 317.593 71.985 317.013 71.805C316.433 71.615 315.978 71.38 315.648 71.1L316.128 70.26C316.448 70.5 316.858 70.71 317.358 70.89C317.858 71.06 318.383 71.145 318.933 71.145C319.683 71.145 320.223 71.03 320.553 70.8C320.883 70.56 321.048 70.245 321.048 69.855C321.048 69.565 320.953 69.34 320.763 69.18C320.583 69.01 320.343 68.885 320.043 68.805C319.743 68.715 319.408 68.64 319.038 68.58C318.668 68.52 318.298 68.45 317.928 68.37C317.568 68.29 317.238 68.175 316.938 68.025C316.638 67.865 316.393 67.65 316.203 67.38C316.023 67.11 315.933 66.75 315.933 66.3C315.933 65.87 316.053 65.485 316.293 65.145C316.533 64.805 316.883 64.54 317.343 64.35C317.813 64.15 318.383 64.05 319.053 64.05C319.563 64.05 320.073 64.12 320.583 64.26C321.093 64.39 321.513 64.565 321.843 64.785L321.378 65.64C321.028 65.4 320.653 65.23 320.253 65.13C319.853 65.02 319.453 64.965 319.053 64.965C318.343 64.965 317.818 65.09 317.478 65.34C317.148 65.58 316.983 65.89 316.983 66.27C316.983 66.57 317.073 66.805 317.253 66.975C317.443 67.145 317.688 67.28 317.988 67.38C318.298 67.47 318.633 67.545 318.993 67.605C319.363 67.665 319.728 67.74 320.088 67.83C320.458 67.91 320.793 68.025 321.093 68.175C321.403 68.315 321.648 68.52 321.828 68.79C322.018 69.05 322.113 69.395 322.113 69.825C322.113 70.285 321.983 70.685 321.723 71.025C321.473 71.355 321.103 71.615 320.613 71.805C320.133 71.985 319.548 72.075 318.858 72.075ZM324.067 72V64.125H325.132V72H324.067ZM324.607 62.385C324.387 62.385 324.202 62.31 324.052 62.16C323.902 62.01 323.827 61.83 323.827 61.62C323.827 61.41 323.902 61.235 324.052 61.095C324.202 60.945 324.387 60.87 324.607 60.87C324.827 60.87 325.012 60.94 325.162 61.08C325.312 61.22 325.387 61.395 325.387 61.605C325.387 61.825 325.312 62.01 325.162 62.16C325.022 62.31 324.837 62.385 324.607 62.385ZM331.365 72.075C330.585 72.075 329.885 71.905 329.265 71.565C328.655 71.215 328.175 70.74 327.825 70.14C327.475 69.53 327.3 68.835 327.3 68.055C327.3 67.265 327.475 66.57 327.825 65.97C328.175 65.37 328.655 64.9 329.265 64.56C329.885 64.22 330.585 64.05 331.365 64.05C332.035 64.05 332.64 64.18 333.18 64.44C333.72 64.7 334.145 65.09 334.455 65.61L333.66 66.15C333.39 65.75 333.055 65.455 332.655 65.265C332.255 65.075 331.82 64.98 331.35 64.98C330.79 64.98 330.285 65.11 329.835 65.37C329.385 65.62 329.03 65.975 328.77 66.435C328.51 66.895 328.38 67.435 328.38 68.055C328.38 68.675 328.51 69.215 328.77 69.675C329.03 70.135 329.385 70.495 329.835 70.755C330.285 71.005 330.79 71.13 331.35 71.13C331.82 71.13 332.255 71.035 332.655 70.845C333.055 70.655 333.39 70.365 333.66 69.975L334.455 70.515C334.145 71.025 333.72 71.415 333.18 71.685C332.64 71.945 332.035 72.075 331.365 72.075ZM336.945 72.075C336.725 72.075 336.535 71.995 336.375 71.835C336.225 71.675 336.15 71.48 336.15 71.25C336.15 71.01 336.225 70.815 336.375 70.665C336.535 70.515 336.725 70.44 336.945 70.44C337.165 70.44 337.35 70.515 337.5 70.665C337.66 70.815 337.74 71.01 337.74 71.25C337.74 71.48 337.66 71.675 337.5 71.835C337.35 71.995 337.165 72.075 336.945 72.075ZM344.17 72V61.5H345.28V71.04H351.16V72H344.17ZM352.778 72V64.125H353.843V72H352.778ZM353.318 62.385C353.098 62.385 352.913 62.31 352.763 62.16C352.613 62.01 352.538 61.83 352.538 61.62C352.538 61.41 352.613 61.235 352.763 61.095C352.913 60.945 353.098 60.87 353.318 60.87C353.538 60.87 353.723 60.94 353.873 61.08C354.023 61.22 354.098 61.395 354.098 61.605C354.098 61.825 354.023 62.01 353.873 62.16C353.733 62.31 353.548 62.385 353.318 62.385ZM358.831 72L355.336 64.125H356.446L359.656 71.43H359.131L362.386 64.125H363.436L359.926 72H358.831ZM368.061 72.075C367.241 72.075 366.521 71.905 365.901 71.565C365.281 71.215 364.796 70.74 364.446 70.14C364.096 69.53 363.921 68.835 363.921 68.055C363.921 67.275 364.086 66.585 364.416 65.985C364.756 65.385 365.216 64.915 365.796 64.575C366.386 64.225 367.046 64.05 367.776 64.05C368.516 64.05 369.171 64.22 369.741 64.56C370.321 64.89 370.776 65.36 371.106 65.97C371.436 66.57 371.601 67.265 371.601 68.055C371.601 68.105 371.596 68.16 371.586 68.22C371.586 68.27 371.586 68.325 371.586 68.385H364.731V67.59H371.016L370.596 67.905C370.596 67.335 370.471 66.83 370.221 66.39C369.981 65.94 369.651 65.59 369.231 65.34C368.811 65.09 368.326 64.965 367.776 64.965C367.236 64.965 366.751 65.09 366.321 65.34C365.891 65.59 365.556 65.94 365.316 66.39C365.076 66.84 364.956 67.355 364.956 67.935V68.1C364.956 68.7 365.086 69.23 365.346 69.69C365.616 70.14 365.986 70.495 366.456 70.755C366.936 71.005 367.481 71.13 368.091 71.13C368.571 71.13 369.016 71.045 369.426 70.875C369.846 70.705 370.206 70.445 370.506 70.095L371.106 70.785C370.756 71.205 370.316 71.525 369.786 71.745C369.266 71.965 368.691 72.075 368.061 72.075ZM377.695 72V64.125H378.76V72H377.695ZM378.235 62.385C378.015 62.385 377.83 62.31 377.68 62.16C377.53 62.01 377.455 61.83 377.455 61.62C377.455 61.41 377.53 61.235 377.68 61.095C377.83 60.945 378.015 60.87 378.235 60.87C378.455 60.87 378.64 60.94 378.79 61.08C378.94 61.22 379.015 61.395 379.015 61.605C379.015 61.825 378.94 62.01 378.79 62.16C378.65 62.31 378.465 62.385 378.235 62.385ZM385.743 64.05C386.383 64.05 386.943 64.175 387.423 64.425C387.913 64.665 388.293 65.035 388.563 65.535C388.843 66.035 388.983 66.665 388.983 67.425V72H387.918V67.53C387.918 66.7 387.708 66.075 387.288 65.655C386.878 65.225 386.298 65.01 385.548 65.01C384.988 65.01 384.498 65.125 384.078 65.355C383.668 65.575 383.348 65.9 383.118 66.33C382.898 66.75 382.788 67.26 382.788 67.86V72H381.723V64.125H382.743V66.285L382.578 65.88C382.828 65.31 383.228 64.865 383.778 64.545C384.328 64.215 384.983 64.05 385.743 64.05ZM396.011 72V61.5H396.926L401.726 69.69H401.246L406.001 61.5H406.916V72H405.851V63.165H406.106L401.726 70.665H401.201L396.791 63.165H397.076V72H396.011ZM413.367 72.075C412.697 72.075 412.112 71.95 411.612 71.7C411.112 71.45 410.722 71.075 410.442 70.575C410.172 70.075 410.037 69.45 410.037 68.7V64.125H411.102V68.58C411.102 69.42 411.307 70.055 411.717 70.485C412.137 70.905 412.722 71.115 413.472 71.115C414.022 71.115 414.497 71.005 414.897 70.785C415.307 70.555 415.617 70.225 415.827 69.795C416.047 69.365 416.157 68.85 416.157 68.25V64.125H417.222V72H416.202V69.84L416.367 70.23C416.117 70.81 415.727 71.265 415.197 71.595C414.677 71.915 414.067 72.075 413.367 72.075ZM422.305 72.075C421.655 72.075 421.04 71.985 420.46 71.805C419.88 71.615 419.425 71.38 419.095 71.1L419.575 70.26C419.895 70.5 420.305 70.71 420.805 70.89C421.305 71.06 421.83 71.145 422.38 71.145C423.13 71.145 423.67 71.03 424 70.8C424.33 70.56 424.495 70.245 424.495 69.855C424.495 69.565 424.4 69.34 424.21 69.18C424.03 69.01 423.79 68.885 423.49 68.805C423.19 68.715 422.855 68.64 422.485 68.58C422.115 68.52 421.745 68.45 421.375 68.37C421.015 68.29 420.685 68.175 420.385 68.025C420.085 67.865 419.84 67.65 419.65 67.38C419.47 67.11 419.38 66.75 419.38 66.3C419.38 65.87 419.5 65.485 419.74 65.145C419.98 64.805 420.33 64.54 420.79 64.35C421.26 64.15 421.83 64.05 422.5 64.05C423.01 64.05 423.52 64.12 424.03 64.26C424.54 64.39 424.96 64.565 425.29 64.785L424.825 65.64C424.475 65.4 424.1 65.23 423.7 65.13C423.3 65.02 422.9 64.965 422.5 64.965C421.79 64.965 421.265 65.09 420.925 65.34C420.595 65.58 420.43 65.89 420.43 66.27C420.43 66.57 420.52 66.805 420.7 66.975C420.89 67.145 421.135 67.28 421.435 67.38C421.745 67.47 422.08 67.545 422.44 67.605C422.81 67.665 423.175 67.74 423.535 67.83C423.905 67.91 424.24 68.025 424.54 68.175C424.85 68.315 425.095 68.52 425.275 68.79C425.465 69.05 425.56 69.395 425.56 69.825C425.56 70.285 425.43 70.685 425.17 71.025C424.92 71.355 424.55 71.615 424.06 71.805C423.58 71.985 422.995 72.075 422.305 72.075ZM427.514 72V64.125H428.579V72H427.514ZM428.054 62.385C427.834 62.385 427.649 62.31 427.499 62.16C427.349 62.01 427.274 61.83 427.274 61.62C427.274 61.41 427.349 61.235 427.499 61.095C427.649 60.945 427.834 60.87 428.054 60.87C428.274 60.87 428.459 60.94 428.609 61.08C428.759 61.22 428.834 61.395 428.834 61.605C428.834 61.825 428.759 62.01 428.609 62.16C428.469 62.31 428.284 62.385 428.054 62.385ZM434.813 72.075C434.033 72.075 433.333 71.905 432.713 71.565C432.103 71.215 431.623 70.74 431.273 70.14C430.923 69.53 430.748 68.835 430.748 68.055C430.748 67.265 430.923 66.57 431.273 65.97C431.623 65.37 432.103 64.9 432.713 64.56C433.333 64.22 434.033 64.05 434.813 64.05C435.483 64.05 436.088 64.18 436.628 64.44C437.168 64.7 437.593 65.09 437.903 65.61L437.108 66.15C436.838 65.75 436.503 65.455 436.103 65.265C435.703 65.075 435.268 64.98 434.798 64.98C434.238 64.98 433.733 65.11 433.283 65.37C432.833 65.62 432.478 65.975 432.218 66.435C431.958 66.895 431.828 67.435 431.828 68.055C431.828 68.675 431.958 69.215 432.218 69.675C432.478 70.135 432.833 70.495 433.283 70.755C433.733 71.005 434.238 71.13 434.798 71.13C435.268 71.13 435.703 71.035 436.103 70.845C436.503 70.655 436.838 70.365 437.108 69.975L437.903 70.515C437.593 71.025 437.168 71.415 436.628 71.685C436.088 71.945 435.483 72.075 434.813 72.075Z" fill="white"/>
</g>
<g filter="url(#filter1_d_1_2)">
<path d="M31.36 24.616C32.896 22.456 33.616 20.056 33.616 17.368C33.616 13.864 32.368 10.888 29.872 8.344C27.376 5.848 24.352 4.6 20.848 4.6H4L7.312 10.312L8.032 11.032H20.848C22.576 11.032 24.064 11.656 25.312 12.904C26.608 14.152 27.232 15.64 27.232 17.368C27.232 19.144 26.608 20.68 25.312 21.928C24.064 23.176 22.576 23.8 20.848 23.8L15.136 23.752L26.272 43H33.616L25.744 29.224C28 28.312 29.872 26.776 31.36 24.616ZM71.7156 4.6C66.3876 4.6 61.8756 6.52 58.1796 10.264C54.4356 14.008 52.5156 18.52 52.5156 23.8C52.5156 29.128 54.4356 33.592 58.1796 37.336C61.9236 41.08 66.3876 43 71.7156 43C77.0436 43 81.5076 41.08 85.2516 37.336C89.0436 33.64 90.9636 29.128 90.9636 23.8C90.9636 18.52 89.0436 14.008 85.2516 10.264C81.5076 6.52 77.0436 4.6 71.7156 4.6ZM71.7156 11.032C75.2196 11.032 78.2436 12.28 80.7396 14.776C83.2356 17.272 84.4836 20.296 84.4836 23.8C84.4836 27.304 83.2836 30.328 80.7396 32.872C78.2436 35.368 75.2196 36.568 71.7156 36.568C68.2116 36.568 65.1396 35.368 62.6436 32.872C60.1476 30.376 58.9476 27.304 58.9476 23.8C58.9476 20.296 60.1476 17.272 62.6436 14.776C65.1876 12.232 68.2116 11.032 71.7156 11.032ZM130.028 4.6C124.7 4.6 120.188 6.52 116.492 10.264C112.748 14.008 110.828 18.52 110.828 23.8C110.828 29.128 112.748 33.592 116.492 37.336C120.236 41.08 124.7 43 130.028 43C135.356 43 139.82 41.08 143.564 37.336C147.356 33.64 149.276 29.128 149.276 23.8C149.276 18.52 147.356 14.008 143.564 10.264C139.82 6.52 135.356 4.6 130.028 4.6ZM130.028 11.032C133.532 11.032 136.556 12.28 139.052 14.776C141.548 17.272 142.796 20.296 142.796 23.8C142.796 27.304 141.596 30.328 139.052 32.872C136.556 35.368 133.532 36.568 130.028 36.568C126.524 36.568 123.452 35.368 120.956 32.872C118.46 30.376 117.26 27.304 117.26 23.8C117.26 20.296 118.46 17.272 120.956 14.776C123.5 12.232 126.524 11.032 130.028 11.032ZM169.141 23.752V43H175.525V30.232H194.725V23.752H175.525H169.141ZM169.141 4.6L175.525 11.032H194.725V4.6H169.141ZM211.703 4.6V11.032V43H218.135V11.032H230.903V4.6H211.703ZM267.372 4.6C262.044 4.6 257.532 6.52 253.836 10.264C250.092 14.008 248.172 18.52 248.172 23.8C248.172 29.128 250.092 33.592 253.836 37.336C257.58 41.08 262.044 43 267.372 43C272.7 43 277.164 41.08 280.908 37.336C284.7 33.64 286.62 29.128 286.62 23.8C286.62 18.52 284.7 14.008 280.908 10.264C277.164 6.52 272.7 4.6 267.372 4.6ZM267.372 11.032C270.876 11.032 273.9 12.28 276.396 14.776C278.892 17.272 280.14 20.296 280.14 23.8C280.14 27.304 278.94 30.328 276.396 32.872C273.9 35.368 270.876 36.568 267.372 36.568C263.868 36.568 260.796 35.368 258.3 32.872C255.804 30.376 254.604 27.304 254.604 23.8C254.604 20.296 255.804 17.272 258.3 14.776C260.844 12.232 263.868 11.032 267.372 11.032ZM334.708 8.344C332.212 5.848 329.188 4.6 325.684 4.6H306.484L312.868 11.032H325.684C327.412 11.032 328.9 11.656 330.148 12.904C331.444 14.152 332.068 15.688 332.068 17.416C332.068 19.192 331.396 20.68 330.148 21.928C328.9 23.176 327.412 23.8 325.684 23.8H312.868H306.484V43H312.868V30.232H325.684C329.188 30.232 332.212 28.984 334.708 26.488C337.252 23.992 338.452 20.92 338.452 17.416C338.452 13.912 337.204 10.888 334.708 8.344ZM387.138 4.6C381.81 4.6 377.298 6.52 373.602 10.264C369.858 14.008 367.938 18.52 367.938 23.8C367.938 29.128 369.858 33.592 373.602 37.336C377.346 41.08 381.81 43 387.138 43C392.466 43 396.93 41.08 400.674 37.336C404.466 33.64 406.386 29.128 406.386 23.8C406.386 18.52 404.466 14.008 400.674 10.264C396.93 6.52 392.466 4.6 387.138 4.6ZM387.138 11.032C390.642 11.032 393.666 12.28 396.161 14.776C398.658 17.272 399.906 20.296 399.906 23.8C399.906 27.304 398.706 30.328 396.161 32.872C393.666 35.368 390.642 36.568 387.138 36.568C383.634 36.568 380.562 35.368 378.066 32.872C375.57 30.376 374.37 27.304 374.37 23.8C374.37 20.296 375.57 17.272 378.066 14.776C380.609 12.232 383.634 11.032 387.138 11.032ZM426.25 23.752V43H432.634V30.232H451.834V23.752H432.634H426.25ZM426.25 4.6L432.634 11.032H451.834V4.6H426.25ZM468.812 23.752V43H475.197V30.232H494.397V23.752H475.197H468.812ZM468.812 4.6L475.197 11.032H494.397V4.6H468.812ZM517.759 10.936L511.375 4.6V43L517.759 36.568V10.936ZM541.886 41.464C544.19 42.472 546.686 43 549.326 43C551.966 43 554.462 42.52 556.766 41.512L549.326 36.568C547.55 36.568 545.918 36.232 544.334 35.608C542.798 34.936 541.454 34.024 540.302 32.824C539.102 31.672 538.19 30.328 537.518 28.792C536.846 27.208 536.51 25.576 536.51 23.8C536.51 22.024 536.846 20.392 537.518 18.808C538.19 17.272 539.102 15.928 540.254 14.776C541.406 13.576 542.75 12.664 544.334 11.992C545.87 11.368 547.55 11.032 549.326 11.032C552.782 11.032 555.806 12.232 558.35 14.728L562.91 10.264C561.134 8.488 559.07 7.096 556.766 6.088C554.462 5.08 551.966 4.6 549.326 4.6C546.686 4.6 544.19 5.128 541.886 6.136C539.534 7.144 537.518 8.488 535.742 10.264C534.014 11.992 532.622 14.008 531.614 16.312C530.606 18.664 530.078 21.16 530.078 23.8C530.078 26.392 530.606 28.84 531.614 31.192C532.622 33.544 534.014 35.56 535.742 37.336C537.518 39.064 539.534 40.456 541.886 41.464ZM583.009 10.936L576.625 4.6V43L583.009 36.568V10.936ZM611.264 30.232L616.928 18.952L622.544 30.232H629.744L616.928 4.6L597.728 43H604.832L608.096 36.568L611.264 30.232ZM632.912 36.616H625.808L628.976 43H636.128L632.912 36.616ZM656.884 36.568L650.5 43H676.084V36.568H656.884ZM650.5 4.6V5.656V34.312L656.884 27.88V5.656V4.6H650.5Z" fill="white"/>
</g>
<defs>
<filter id="filter0_d_1_2" x="243.71" y="60.87" width="198.193" height="19.205" filterUnits="userSpaceOnUse" color-interpolation-filters="sRGB">
<feFlood flood-opacity="0" result="BackgroundImageFix"/>
<feColorMatrix in="SourceAlpha" type="matrix" values="0 0 0 0 0 0 0 0 0 0 0 0 0 0 0 0 0 0 127 0" result="hardAlpha"/>
<feOffset dy="4"/>
<feGaussianBlur stdDeviation="2"/>
<feComposite in2="hardAlpha" operator="out"/>
<feColorMatrix type="matrix" values="0 0 0 0 0 0 0 0 0 0 0 0 0 0 0 0 0 0 0.25 0"/>
<feBlend mode="normal" in2="BackgroundImageFix" result="effect1_dropShadow_1_2"/>
<feBlend mode="normal" in="SourceGraphic" in2="effect1_dropShadow_1_2" result="shape"/>
</filter>
<filter id="filter1_d_1_2" x="0" y="4.6" width="680.084" height="46.4" filterUnits="userSpaceOnUse" color-interpolation-filters="sRGB">
<feFlood flood-opacity="0" result="BackgroundImageFix"/>
<feColorMatrix in="SourceAlpha" type="matrix" values="0 0 0 0 0 0 0 0 0 0 0 0 0 0 0 0 0 0 127 0" result="hardAlpha"/>
<feOffset dy="4"/>
<feGaussianBlur stdDeviation="2"/>
<feComposite in2="hardAlpha" operator="out"/>
<feColorMatrix type="matrix" values="0 0 0 0 0 0 0 0 0 0 0 0 0 0 0 0 0 0 0.25 0"/>
<feBlend mode="normal" in2="BackgroundImageFix" result="effect1_dropShadow_1_2"/>
<feBlend mode="normal" in="SourceGraphic" in2="effect1_dropShadow_1_2" result="shape"/>
</filter>
</defs>
</svg>
